<svg width="386" height="668" viewBox="0 0 386 668" fill="none" xmlns="http://www.w3.org/2000/svg">
<path d="M197 36V184H377.5L382.5 180V170L380 160L375 149L369.5 142.5L363 139.5H360V133L357 126L354 117.5L350 108L346 99L341 91L336 83L329.5 74L322.5 66.5L316 61L310 57.5H302.5L296.5 61L293 53L289 46.5L283 42L276.5 39L267.5 36H258H255.5L251.5 28.5L246.5 24.5L240 21L232.5 18.5L221.5 16H213L204.5 21L199.5 28.5L197 36Z" fill="#FFDFAB" stroke="#444444"/>
<path d="M195 47H200V185H195V47Z" fill="#444444"/>
<path d="M227.752 77.7977C244.266 77.7977 257.653 64.4105 257.653 47.8965C257.653 31.3825 248.83 22.4805 227.752 17.9953C201.575 12.4252 196.152 23.4772 197.5 47.8965" stroke="#444444" stroke-width="5"/>
<path d="M299.5 121.5C309.5 82.5 295 110 295 61C295 46 276.061 33.4626 255 36" stroke="#444444" stroke-width="5"/>
<path d="M276.5 88.5C258 93 247.5 84 252.472 64.5" stroke="#444444" stroke-width="5"/>
<path d="M308 137C308 170.5 363 164.5 359.5 133.5C348 90 313.5 43.5 296 59.5" stroke="#444444" stroke-width="5"/>
<path d="M375.5 184.5C395.5 184.5 373 128.5 358.5 141" stroke="#444444" stroke-width="5"/>
<path d="M216 139.5C233 154 255.738 151 249.5 120.5C245.511 101 231.5 89.5 216 96.5" stroke="#444444" stroke-width="5"/>
<path d="M271.5 131.5C289.5 136.5 299.5 153 282.5 163.5C268.238 172.309 244 168 244 144.5" stroke="#444444" stroke-width="5"/>
<rect x="195" y="182" width="182" height="5" fill="#444444"/>
<path d="M189.5 39V185H13.5L5 181.5L2.5 171L5 161.5L9.5 147.5L16.5 131L27.5 113L37.5 101L45 95H50.5L53.5 84.5L58 75L64 66.5L72 59L82.5 51L92 44.5L103.5 39H111.5H119L126 47L129.5 39L135 29L144.5 23L160 18.5H172.5L185.5 23L189.5 29V39Z" fill="#FFDFAB" stroke="#444444"/>
<path d="M158.099 78.218C141.585 78.218 128.198 64.8308 128.198 48.3168C128.198 31.8029 137.021 22.9008 158.099 18.4156C184.276 12.8455 190.847 23.8975 189.5 48.3168" stroke="#444444" stroke-width="5"/>
<path d="M108.5 105.5C120.5 112 154.304 3.99996 86 49C38 78 43.4999 123 75.9999 115.5" stroke="#444444" stroke-width="5"/>
<path d="M12.4999 185.5C-19 182.5 35.9997 81 51.9997 95.5" stroke="#444444" stroke-width="5"/>
<path d="M109.5 125.5C129.5 139 120 161.5 94.9998 166.5C72.4998 171 51.4998 166.5 41.4998 142.5" stroke="#444444" stroke-width="5"/>
<path d="M167.5 170C179.5 160.5 177.5 143.5 159 136.5C136 131.5 133.5 141 109 161" stroke="#444444" stroke-width="5"/>
<path d="M159 136C149.335 136 141.5 128.165 141.5 118.5C141.5 108.835 149.335 101 159 101" stroke="#444444" stroke-width="5"/>
<path d="M187 47H192V185H187V47Z" fill="#444444"/>
<rect x="10.9998" y="183" width="181" height="5" fill="#444444"/>
<rect x="5" y="186" width="377" height="377" stroke="#444444" stroke-width="8"/>
<path d="M142.185 311.69C152.555 314.41 160.545 319.51 166.155 326.99C171.935 334.47 174.825 343.82 174.825 355.04C174.825 370.85 169.64 383.005 159.27 391.505C148.9 399.835 134.195 404 115.155 404H50.895C47.665 404 45.03 403.065 42.99 401.195C41.12 399.325 40.185 396.86 40.185 393.8V234.425C40.185 231.365 41.12 228.9 42.99 227.03C45.03 225.16 47.665 224.225 50.895 224.225H112.35C130.88 224.225 145.245 228.305 155.445 236.465C165.645 244.625 170.745 256.185 170.745 271.145C170.745 280.835 168.195 289.165 163.095 296.135C158.165 303.105 151.195 308.29 142.185 311.69ZM60.84 304.04H109.29C122.72 304.04 132.835 301.32 139.635 295.88C146.605 290.44 150.09 282.535 150.09 272.165C150.09 251.765 136.49 241.565 109.29 241.565H60.84V304.04ZM113.115 386.66C127.225 386.66 137.595 384.11 144.225 379.01C151.025 373.74 154.425 365.58 154.425 354.53C154.425 332.43 140.655 321.38 113.115 321.38H60.84V386.66H113.115ZM349.201 390.995C350.391 392.865 350.986 394.82 350.986 396.86C350.986 399.41 349.966 401.535 347.926 403.235C346.056 404.765 343.846 405.53 341.296 405.53C337.386 405.53 334.326 403.83 332.116 400.43L297.946 346.37C293.526 339.4 288.936 334.64 284.176 332.09C279.416 329.37 272.956 328.01 264.796 328.01H232.666V394.565C232.666 397.795 231.731 400.43 229.861 402.47C227.991 404.34 225.526 405.275 222.466 405.275C219.236 405.275 216.686 404.34 214.816 402.47C212.946 400.43 212.011 397.795 212.011 394.565V234.425C212.011 231.365 212.946 228.9 214.816 227.03C216.856 225.16 219.491 224.225 222.721 224.225H285.961C305.511 224.225 320.386 228.56 330.586 237.23C340.956 245.9 346.141 258.65 346.141 275.48C346.141 289.76 341.976 301.235 333.646 309.905C325.486 318.575 313.756 323.845 298.456 325.715C302.706 327.075 306.531 329.285 309.931 332.345C313.331 335.405 316.731 339.655 320.131 345.095L349.201 390.995ZM284.176 310.67C298.116 310.67 308.486 307.78 315.286 302C322.256 296.22 325.741 287.465 325.741 275.735C325.741 264.175 322.341 255.59 315.541 249.98C308.741 244.37 298.286 241.565 284.176 241.565H232.666V310.67H284.176Z" fill="#444444"/>
<path d="M122.5 518.3C122.9 519.167 123.1 520.033 123.1 520.9C123.1 522.433 122.467 523.733 121.2 524.8C120 525.867 118.6 526.4 117 526.4C115.933 526.4 114.933 526.133 114 525.6C113.067 525 112.333 524.1 111.8 522.9L105.8 509.5H70.6L64.6 522.9C64.0667 524.1 63.3333 525 62.4 525.6C61.4667 526.133 60.4333 526.4 59.3 526.4C57.7667 526.4 56.3667 525.867 55.1 524.8C53.8333 523.733 53.2 522.433 53.2 520.9C53.2 520.033 53.4 519.167 53.8 518.3L81.4 459C82 457.667 82.9 456.667 84.1 456C85.3667 455.267 86.7 454.9 88.1 454.9C89.5 454.9 90.8 455.267 92 456C93.2667 456.667 94.2 457.667 94.8 459L122.5 518.3ZM75 499.5H101.4L88.2 469.8L75 499.5ZM193.516 526.6C191.582 526.6 190.016 526 188.816 524.8C187.682 523.6 187.116 522.033 187.116 520.1V461.4C187.116 459.467 187.682 457.933 188.816 456.8C190.016 455.6 191.582 455 193.516 455C195.516 455 197.082 455.6 198.216 456.8C199.416 457.933 200.016 459.467 200.016 461.4V520.1C200.016 522.033 199.416 523.6 198.216 524.8C197.082 526 195.516 526.6 193.516 526.6ZM322.938 455C324.804 455 326.271 455.6 327.338 456.8C328.471 457.933 329.038 459.467 329.038 461.4V520.1C329.038 522.033 328.471 523.6 327.338 524.8C326.204 526 324.738 526.6 322.938 526.6C320.804 526.6 319.171 525.833 318.038 524.3L281.538 476.8V520.1C281.538 522.033 281.004 523.6 279.938 524.8C278.871 526 277.404 526.6 275.538 526.6C273.671 526.6 272.204 526 271.138 524.8C270.071 523.6 269.538 522.033 269.538 520.1V461.4C269.538 459.467 270.104 457.933 271.238 456.8C272.371 455.6 273.871 455 275.738 455C277.804 455 279.404 455.767 280.538 457.3L316.938 504.6V461.4C316.938 459.467 317.471 457.933 318.538 456.8C319.671 455.6 321.138 455 322.938 455Z" fill="#444444"/>
<path d="M33.64 622.704C36.2427 623.429 38.248 624.752 39.656 626.672C41.1067 628.592 41.832 630.939 41.832 633.712C41.832 637.552 40.4453 640.56 37.672 642.736C34.9413 644.912 31.1653 646 26.344 646H9.832C8.59467 646 7.61333 645.659 6.888 644.976C6.20533 644.293 5.864 643.333 5.864 642.096V604.784C5.864 603.547 6.20533 602.587 6.888 601.904C7.61333 601.221 8.59467 600.88 9.832 600.88H25.704C30.3973 600.88 34.0667 601.925 36.712 604.016C39.4 606.064 40.744 608.944 40.744 612.656C40.744 615.045 40.104 617.115 38.824 618.864C37.5867 620.613 35.8587 621.893 33.64 622.704ZM13.928 619.888H24.36C30.0347 619.888 32.872 617.776 32.872 613.552C32.872 611.419 32.168 609.84 30.76 608.816C29.352 607.792 27.2187 607.28 24.36 607.28H13.928V619.888ZM25.448 639.6C28.4347 639.6 30.6107 639.067 31.976 638C33.3413 636.933 34.024 635.269 34.024 633.008C34.024 630.747 33.32 629.061 31.912 627.952C30.5467 626.843 28.392 626.288 25.448 626.288H13.928V639.6H25.448ZM85.6475 640.816C86.1595 641.584 86.4155 642.331 86.4155 643.056C86.4155 644.037 86.0102 644.848 85.1995 645.488C84.4315 646.128 83.5142 646.448 82.4475 646.448C81.7648 646.448 81.1035 646.299 80.4635 646C79.8662 645.659 79.3542 645.168 78.9275 644.528L70.4155 631.6C69.5622 630.235 68.6448 629.275 67.6635 628.72C66.7248 628.165 65.4875 627.888 63.9515 627.888H57.6795V642.224C57.6795 643.504 57.3168 644.528 56.5915 645.296C55.8662 646.021 54.8848 646.384 53.6475 646.384C52.4102 646.384 51.4075 646.021 50.6395 645.296C49.9142 644.528 49.5515 643.504 49.5515 642.224V604.784C49.5515 603.547 49.8928 602.587 50.5755 601.904C51.3008 601.221 52.2822 600.88 53.5195 600.88H69.5195C74.6395 600.88 78.5222 602.032 81.1675 604.336C83.8555 606.597 85.1995 609.883 85.1995 614.192C85.1995 617.691 84.1968 620.571 82.1915 622.832C80.2288 625.051 77.4342 626.48 73.8075 627.12C75.0448 627.419 76.1328 627.952 77.0715 628.72C78.0102 629.488 78.9275 630.555 79.8235 631.92L85.6475 640.816ZM68.3675 621.552C71.4822 621.552 73.7648 620.976 75.2155 619.824C76.6662 618.629 77.3915 616.816 77.3915 614.384C77.3915 611.909 76.6662 610.117 75.2155 609.008C73.7648 607.856 71.4822 607.28 68.3675 607.28H57.6155V621.552H68.3675ZM134.448 641.072C134.704 641.627 134.832 642.181 134.832 642.736C134.832 643.717 134.426 644.549 133.616 645.232C132.848 645.915 131.952 646.256 130.928 646.256C130.245 646.256 129.605 646.085 129.008 645.744C128.41 645.36 127.941 644.784 127.6 644.016L123.76 635.44H101.232L97.3915 644.016C97.0502 644.784 96.5808 645.36 95.9835 645.744C95.3862 646.085 94.7248 646.256 93.9995 646.256C93.0182 646.256 92.1222 645.915 91.3115 645.232C90.5008 644.549 90.0955 643.717 90.0955 642.736C90.0955 642.181 90.2235 641.627 90.4795 641.072L108.144 603.12C108.528 602.267 109.104 601.627 109.872 601.2C110.682 600.731 111.536 600.496 112.432 600.496C113.328 600.496 114.16 600.731 114.928 601.2C115.738 601.627 116.336 602.267 116.72 603.12L134.448 641.072ZM104.048 629.04H120.944L112.496 610.032L104.048 629.04ZM145.148 646.384C143.91 646.384 142.908 646 142.14 645.232C141.414 644.464 141.052 643.461 141.052 642.224V604.656C141.052 603.419 141.414 602.437 142.14 601.712C142.908 600.944 143.91 600.56 145.148 600.56C146.428 600.56 147.43 600.944 148.156 601.712C148.924 602.437 149.308 603.419 149.308 604.656V642.224C149.308 643.461 148.924 644.464 148.156 645.232C147.43 646 146.428 646.384 145.148 646.384ZM193.228 600.56C194.422 600.56 195.361 600.944 196.044 601.712C196.769 602.437 197.132 603.419 197.132 604.656V642.224C197.132 643.461 196.769 644.464 196.044 645.232C195.318 646 194.38 646.384 193.228 646.384C191.862 646.384 190.817 645.893 190.092 644.912L166.732 614.512V642.224C166.732 643.461 166.39 644.464 165.708 645.232C165.025 646 164.086 646.384 162.892 646.384C161.697 646.384 160.758 646 160.076 645.232C159.393 644.464 159.052 643.461 159.052 642.224V604.656C159.052 603.419 159.414 602.437 160.14 601.712C160.865 600.944 161.825 600.56 163.02 600.56C164.342 600.56 165.366 601.051 166.092 602.032L189.388 632.304V604.656C189.388 603.419 189.729 602.437 190.412 601.712C191.137 600.944 192.076 600.56 193.228 600.56ZM234.64 622.704C237.243 623.429 239.248 624.752 240.656 626.672C242.107 628.592 242.832 630.939 242.832 633.712C242.832 637.552 241.445 640.56 238.672 642.736C235.941 644.912 232.165 646 227.344 646H210.832C209.595 646 208.613 645.659 207.888 644.976C207.205 644.293 206.864 643.333 206.864 642.096V604.784C206.864 603.547 207.205 602.587 207.888 601.904C208.613 601.221 209.595 600.88 210.832 600.88H226.704C231.397 600.88 235.067 601.925 237.712 604.016C240.4 606.064 241.744 608.944 241.744 612.656C241.744 615.045 241.104 617.115 239.824 618.864C238.587 620.613 236.859 621.893 234.64 622.704ZM214.928 619.888H225.36C231.035 619.888 233.872 617.776 233.872 613.552C233.872 611.419 233.168 609.84 231.76 608.816C230.352 607.792 228.219 607.28 225.36 607.28H214.928V619.888ZM226.448 639.6C229.435 639.6 231.611 639.067 232.976 638C234.341 636.933 235.024 635.269 235.024 633.008C235.024 630.747 234.32 629.061 232.912 627.952C231.547 626.843 229.392 626.288 226.448 626.288H214.928V639.6H226.448ZM270.648 646.576C266.253 646.576 262.434 645.637 259.192 643.76C255.992 641.883 253.517 639.195 251.768 635.696C250.018 632.197 249.144 628.101 249.144 623.408C249.144 618.715 249.997 614.64 251.704 611.184C253.453 607.685 255.949 604.997 259.192 603.12C262.434 601.243 266.253 600.304 270.648 600.304C275.042 600.304 278.84 601.243 282.04 603.12C285.282 604.997 287.757 607.685 289.464 611.184C291.213 614.64 292.088 618.715 292.088 623.408C292.088 628.101 291.213 632.197 289.464 635.696C287.714 639.195 285.218 641.883 281.976 643.76C278.776 645.637 275 646.576 270.648 646.576ZM270.648 639.984C274.786 639.984 278.008 638.555 280.312 635.696C282.658 632.837 283.832 628.741 283.832 623.408C283.832 618.075 282.658 614 280.312 611.184C278.008 608.325 274.786 606.896 270.648 606.896C266.466 606.896 263.202 608.325 260.856 611.184C258.552 614 257.4 618.075 257.4 623.408C257.4 628.741 258.552 632.837 260.856 635.696C263.202 638.555 266.466 639.984 270.648 639.984ZM333.874 640.112C334.556 640.923 334.898 641.733 334.898 642.544C334.898 643.568 334.492 644.464 333.682 645.232C332.914 646 332.018 646.384 330.994 646.384C329.927 646.384 328.988 645.915 328.178 644.976L315.186 628.848L302.13 644.976C301.362 645.872 300.444 646.32 299.378 646.32C298.354 646.32 297.436 645.957 296.626 645.232C295.858 644.464 295.474 643.568 295.474 642.544C295.474 641.691 295.794 640.88 296.434 640.112L310.385 623.088L297.01 606.768C296.37 606.085 296.049 605.275 296.049 604.336C296.049 603.312 296.434 602.437 297.202 601.712C297.97 600.944 298.866 600.56 299.89 600.56C300.956 600.56 301.895 601.029 302.706 601.968L315.186 617.392L327.666 601.968C328.434 601.029 329.351 600.56 330.418 600.56C331.442 600.56 332.338 600.944 333.106 601.712C333.916 602.437 334.322 603.312 334.322 604.336C334.322 605.275 334.002 606.085 333.362 606.768L319.986 623.088L333.874 640.112Z" fill="#444444"/>
<path d="M357.3 635.08C358.52 635.42 359.46 636.04 360.12 636.94C360.8 637.84 361.14 638.94 361.14 640.24C361.14 642.04 360.49 643.45 359.19 644.47C357.91 645.49 356.14 646 353.88 646H346.14C345.56 646 345.1 645.84 344.76 645.52C344.44 645.2 344.28 644.75 344.28 644.17V626.68C344.28 626.1 344.44 625.65 344.76 625.33C345.1 625.01 345.56 624.85 346.14 624.85H353.58C355.78 624.85 357.5 625.34 358.74 626.32C360 627.28 360.63 628.63 360.63 630.37C360.63 631.49 360.33 632.46 359.73 633.28C359.15 634.1 358.34 634.7 357.3 635.08ZM348.06 633.76H352.95C355.61 633.76 356.94 632.77 356.94 630.79C356.94 629.79 356.61 629.05 355.95 628.57C355.29 628.09 354.29 627.85 352.95 627.85H348.06V633.76ZM353.46 643C354.86 643 355.88 642.75 356.52 642.25C357.16 641.75 357.48 640.97 357.48 639.91C357.48 638.85 357.15 638.06 356.49 637.54C355.85 637.02 354.84 636.76 353.46 636.76H348.06V643H353.46ZM366.619 646C366.039 646 365.579 645.84 365.239 645.52C364.919 645.2 364.759 644.75 364.759 644.17V626.68C364.759 626.1 364.919 625.65 365.239 625.33C365.579 625.01 366.039 624.85 366.619 624.85H372.559C376.019 624.85 378.699 625.78 380.599 627.64C382.519 629.48 383.479 632.07 383.479 635.41C383.479 638.77 382.519 641.38 380.599 643.24C378.699 645.08 376.019 646 372.559 646H366.619ZM372.319 642.85C377.179 642.85 379.609 640.37 379.609 635.41C379.609 630.47 377.179 628 372.319 628H368.629V642.85H372.319Z" fill="#444444"/>
</svg>
